Coordinates
version=1
nRows=7
nColumns=40
inDegrees=yes

Units are S.I. units (second, meters, Newtons, ...)
If the header above contains a line with 'inDegrees', this indicates whether rotational values are in degrees (yes) or radians (no).

endheader
time	pelvis_tilt	pelvis_list	pelvis_rotation	pelvis_tx	pelvis_ty	pelvis_tz	hip_flexion_r	hip_adduction_r	hip_rotation_r	knee_angle_r	knee_angle_r_beta	ankle_angle_r	subtalar_angle_r	mtp_angle_r	hip_flexion_l	hip_adduction_l	hip_rotation_l	knee_angle_l	knee_angle_l_beta	ankle_angle_l	subtalar_angle_l	mtp_angle_l	lumbar_extension	lumbar_bending	lumbar_rotation	arm_flex_r	arm_add_r	arm_rot_r	elbow_flex_r	pro_sup_r	wrist_flex_r	wrist_dev_r	arm_flex_l	arm_add_l	arm_rot_l	elbow_flex_l	pro_sup_l	wrist_flex_l	wrist_dev_l
      5.91500000	    -10.72341615	      4.74235806	     -3.78421880	     -0.22498119	      1.21885710	     -0.88069422	     15.09735355	     -9.10231024	    -27.29166205	      1.41459529	      0.02468935	    -37.80595056	      0.00000000	      0.00000000	     15.97225945	     -4.22756945	    -33.04688852	      6.93388369	      0.12101910	    -38.27678168	      0.00000000	      0.00000000	     -8.55539478	     -4.88585112	     -3.59316220	    -28.65445185	    -51.93449263	     34.23706154	    102.65479674	     87.58305737	      0.00000000	      0.00000000	    -37.12634636	    -51.95866507	     25.74419344	    102.30908512	     88.02602110	      0.00000000	      0.00000000
      5.92000000	    -10.93432700	      4.68106268	     -3.88118598	     -0.22561052	      1.22777129	     -0.88034169	     15.59884712	     -8.89461728	    -26.55521695	      1.85342595	      0.03234839	    -38.25126998	      0.00000000	      0.00000000	     16.42275041	     -4.33007336	    -32.28784470	      7.20116886	      0.12568411	    -38.45084400	      0.00000000	      0.00000000	     -8.16959047	     -4.84781439	     -3.41270295	    -27.71273831	    -52.15987791	     35.42924850	    102.39032213	     87.53137191	      0.00000000	      0.00000000	    -35.74494868	    -52.37066853	     27.23194405	    101.82815146	     88.03474301	      0.00000000	      0.00000000
      5.92500000	    -11.08956413	      4.55139045	     -3.97405395	     -0.22623938	      1.23627874	     -0.88002642	     16.00540046	     -8.61174282	    -25.39523666	      2.25965682	      0.03943845	    -38.47133866	      0.00000000	      0.00000000	     16.79031448	     -4.46273906	    -30.97824872	      7.37248968	      0.12867422	    -38.66248942	      0.00000000	      0.00000000	     -7.95369154	     -4.74387602	     -3.32425739	    -27.06249876	    -52.27691071	     36.12853092	    102.09955501	     87.53999375	      0.00000000	      0.00000000	    -34.87960349	    -52.42575447	     27.98202240	    101.36138778	     88.05227484	      0.00000000	      0.00000000
      5.93000000	    -11.04689739	      4.46247191	     -4.01043456	     -0.22666497	      1.24473646	     -0.87973153	     16.19149317	     -8.43790214	    -24.51005439	      2.65412448	      0.04632321	    -38.61538759	      0.00000000	      0.00000000	     16.92350733	     -4.50120461	    -29.41803276	      7.48256190	      0.13059534	    -38.81338184	      0.00000000	      0.00000000	     -7.86158082	     -4.67860111	     -3.27777538	    -26.10962383	    -52.50528541	     37.28155536	    101.73566432	     87.53861054	      0.00000000	      0.00000000	    -33.64410118	    -52.70918585	     29.31735092	    100.88603736	     88.03745932	      0.00000000	      0.00000000
      5.93500000	    -11.05342807	      4.37393789	     -4.03361230	     -0.22700506	      1.25276819	     -0.87944949	     16.37945710	     -8.24909295	    -23.28611195	      2.92586602	      0.05106600	    -38.63760337	      0.00000000	      0.00000000	     17.08638642	     -4.54530173	    -27.83168308	      7.55982381	      0.13194382	    -38.83395993	      0.00000000	      0.00000000	     -7.79073567	     -4.62913132	     -3.35092230	    -25.44817538	    -52.69489107	     38.03079113	    101.44145012	     87.54992572	      0.00000000	      0.00000000	    -32.85097244	    -52.80862344	     30.14283930	    100.43545872	     88.05492720	      0.00000000	      0.00000000
      5.94000000	    -11.00384611	      4.18939365	     -3.92015170	     -0.22739237	      1.26057703	     -0.87914367	     16.47849674	     -8.01986542	    -22.48699501	      3.14155647	      0.05483050	    -38.70448842	      0.00000000	      0.00000000	     17.19681180	     -4.65925330	    -26.01277998	      7.63123938	      0.13319025	    -38.87454795	      0.00000000	      0.00000000	     -7.74946549	     -4.47590438	     -3.51537528	    -24.47306175	    -52.91498271	     39.19375585	    101.09956999	     87.55856653	      0.00000000	      0.00000000	    -31.80935362	    -53.03683199	     31.44858672	    100.01564984	     88.04998511	      0.00000000	      0.00000000
      5.94500000	    -10.80280744	      4.16841918	     -3.93336022	     -0.22734138	      1.26831442	     -0.87880048	     16.40853375	     -7.94007626	    -21.63660212	      3.24380196	      0.05661502	    -38.72471476	      0.00000000	      0.00000000	     17.09158630	     -4.61093462	    -24.73126084	      7.60149380	      0.13267109	    -38.85175384	      0.00000000	      0.00000000	     -7.87816789	     -4.52653287	     -3.68789811	    -23.62268609	    -53.09102840	     40.22640161	    100.75191760	     87.59461366	      0.00000000	      0.00000000	    -31.06008879	    -53.16558832	     32.44467426	     99.65793072	     88.04114913	      0.00000000	      0.00000000
